<svg width="32" height="32" viewBox="0 0 200 200" fill="none" xmlns="http://www.w3.org/2000/svg">
  <defs>
    <linearGradient id="bgGradient" x1="0%" y1="0%" x2="100%" y2="100%">
      <stop offset="0%" style="stop-color:#6366f1;stop-opacity:1" />
      <stop offset="100%" style="stop-color:#8b5cf6;stop-opacity:1" />
    </linearGradient>
  </defs>
  <circle cx="100" cy="100" r="95" fill="url(#bgGradient)"/>
  <path d="M 60 60 L 60 140 L 65 140 L 65 60 Z" fill="white" opacity="0.3"/>
  <path d="M 70 55 L 70 145 L 75 145 L 75 55 Z" fill="white" opacity="0.5"/>
  <rect x="75" y="50" width="70" height="100" rx="4" fill="white"/>
  <line x1="85" y1="70" x2="135" y2="70" stroke="#6366f1" stroke-width="2" opacity="0.3"/>
  <line x1="85" y1="85" x2="130" y2="85" stroke="#6366f1" stroke-width="2" opacity="0.3"/>
  <line x1="85" y1="100" x2="135" y2="100" stroke="#6366f1" stroke-width="2" opacity="0.3"/>
  <line x1="85" y1="115" x2="125" y2="115" stroke="#6366f1" stroke-width="2" opacity="0.3"/>
  <line x1="85" y1="130" x2="135" y2="130" stroke="#6366f1" stroke-width="2" opacity="0.3"/>
  <g transform="translate(95, 75)">
    <path d="M 0 40 Q 15 20, 30 0" stroke="white" stroke-width="4" fill="none" stroke-linecap="round"/>
    <path d="M 30 0 L 24 8 L 32 6 L 30 0 Z" fill="#6366f1"/>
    <path d="M 30 0 L 32 6 L 36 0 L 30 0 Z" fill="#6366f1"/>
  </g>
  <circle cx="95" cy="120" r="3" fill="#6366f1" opacity="0.4"/>
  <circle cx="105" cy="110" r="3.5" fill="#6366f1" opacity="0.6"/>
  <circle cx="115" cy="95" r="4" fill="#6366f1" opacity="0.8"/>
</svg>
